<?xml version="1.0" standalone="no"?>
<!DOCTYPE svg PUBLIC "-//W3C//DTD SVG 20010904//EN"
 "http://www.w3.org/TR/2001/REC-SVG-20010904/DTD/svg10.dtd">
<svg version="1.0" xmlns="http://www.w3.org/2000/svg"
 width="256.000000pt" height="256.000000pt" viewBox="0 0 256.000000 256.000000"
 preserveAspectRatio="xMidYMid meet">

<g transform="translate(0.000000,256.000000) scale(0.100000,-0.100000)"
fill="#000000" stroke="none">
<path d="M708 2513 c-39 -89 -48 -143 -48 -300 l0 -151 -40 -78 c-101 -197
-92 -441 22 -631 44 -74 147 -184 222 -238 62 -44 219 -125 243 -125 19 0 16
-7 -21 -53 -53 -66 -82 -138 -101 -251 l-6 -39 -76 5 c-94 6 -108 19 -168 153
-55 121 -87 162 -155 198 -49 25 -61 27 -172 27 -138 0 -175 -12 -214 -69 -29
-43 -32 -115 -8 -167 22 -46 87 -84 145 -84 25 0 53 -6 62 -13 9 -6 35 -61 57
-120 46 -120 83 -175 153 -227 73 -55 127 -71 260 -77 l117 -6 0 -133 0 -134
490 0 491 0 -3 383 -3 382 -31 66 c-18 37 -49 85 -69 108 -33 36 -35 41 -19
47 11 3 60 26 109 50 211 103 350 254 421 459 24 70 28 95 28 195 0 99 -4 126
-28 195 -15 44 -38 99 -52 122 -22 39 -24 51 -24 185 0 151 -13 230 -51 319
l-21 49 -72 0 c-127 0 -231 -38 -313 -112 l-44 -42 -47 12 c-150 37 -351 40
-505 8 l-78 -17 -47 42 c-85 75 -182 109 -310 109 l-73 0 -21 -47z m252 -95
c30 -14 82 -50 115 -80 53 -49 63 -54 85 -46 14 6 66 18 115 29 150 31 348 22
495 -24 l45 -14 64 60 c75 70 131 97 212 104 l57 6 13 -39 c6 -22 14 -117 16
-214 l4 -175 45 -90 c83 -167 84 -318 3 -483 -94 -192 -293 -336 -547 -397
l-73 -17 99 -102 c145 -149 142 -139 142 -521 l0 -305 -380 0 -380 0 0 100 c0
96 -1 101 -29 132 l-29 33 -139 5 c-129 5 -142 7 -192 35 -74 41 -104 82 -156
216 -25 64 -56 125 -68 137 -31 30 -90 52 -135 52 -45 0 -62 14 -62 52 0 47
35 62 140 56 124 -7 148 -24 200 -136 68 -147 86 -176 126 -204 70 -50 237
-63 297 -24 29 20 41 47 57 136 18 100 44 144 148 244 l94 92 -103 27 c-351
92 -579 337 -579 622 0 99 20 178 65 264 35 64 35 67 35 191 0 129 12 237 30
285 10 26 13 27 63 23 28 -2 77 -16 107 -30z"/>
</g>
</svg>
