<?xml version="1.0" standalone="no"?>
<!DOCTYPE svg PUBLIC "-//W3C//DTD SVG 20010904//EN"
 "http://www.w3.org/TR/2001/REC-SVG-20010904/DTD/svg10.dtd">
<svg version="1.0" xmlns="http://www.w3.org/2000/svg"
 width="256.000000pt" height="256.000000pt" viewBox="0 0 256.000000 256.000000"
 preserveAspectRatio="xMidYMid meet">

<g transform="translate(0.000000,256.000000) scale(0.100000,-0.100000)"
fill="#000000" stroke="none">
<path d="M80 2058 c-51 -26 -80 -73 -80 -129 0 -84 74 -304 165 -494 201 -417
495 -746 778 -875 123 -56 209 -74 347 -75 114 0 129 2 175 25 28 14 60 40 72
59 21 32 23 45 23 187 0 85 4 154 8 154 31 0 156 -112 301 -267 75 -82 118
-120 157 -139 52 -25 55 -26 243 -22 210 3 220 6 268 78 70 102 -31 281 -335
592 l-75 76 96 144 c112 168 228 368 259 447 14 36 22 78 23 118 0 55 -3 65
-30 93 -44 46 -79 52 -281 48 -241 -4 -235 0 -338 -210 -41 -84 -100 -193
-132 -243 -58 -92 -144 -205 -156 -205 -4 0 -8 128 -10 284 -3 269 -4 286 -24
313 -43 59 -65 63 -327 63 -259 0 -285 -5 -326 -55 -45 -58 -40 -114 19 -202
22 -32 42 -71 45 -88 3 -16 5 -120 3 -230 l-3 -200 -67 100 c-76 114 -159 276
-212 415 -99 258 -102 260 -369 260 -159 0 -176 -2 -217 -22z m377 -150 c5 -7
27 -60 49 -118 21 -58 68 -166 105 -240 170 -343 319 -487 438 -425 54 28 61
66 61 354 0 280 -9 339 -59 410 l-22 31 185 0 185 0 3 -302 c3 -340 6 -356 74
-384 128 -53 303 127 495 511 44 88 84 164 88 168 4 4 71 6 149 5 l142 -3 -35
-74 c-49 -101 -126 -231 -229 -384 -109 -162 -116 -176 -116 -230 0 -54 18
-80 169 -242 123 -131 235 -273 250 -317 l10 -28 -152 0 -152 0 -140 146
c-152 160 -225 221 -307 259 -96 45 -190 28 -223 -41 -16 -32 -20 -68 -23
-197 l-4 -157 -25 -6 c-44 -11 -195 4 -268 26 -254 79 -509 321 -715 681 -97
169 -199 414 -225 537 l-7 32 145 0 c104 0 147 -4 154 -12z"/>
</g>
</svg>
